<svg width="48" height="54" viewBox="0 0 48 54" fill="none" xmlns="http://www.w3.org/2000/svg">
<path fill-rule="evenodd" clip-rule="evenodd" d="M38.9635 5.8449C34.7721 4.64167 29.162 4.00026 23.9998 4C18.8378 3.99973 13.2278 4.64099 9.0365 5.8442C6.9154 6.4531 5.4223 7.1323 4.5468 7.7565C4.2406 7.9748 4.0794 8.1321 4 8.2245V26.6664C4 32.7743 6.7881 38.4858 10.8776 42.7214C15.0311 47.0232 20.0553 49.3332 24.0001 49.3333C27.9448 49.3334 32.9689 47.0236 37.1224 42.7217C41.2119 38.4861 44 32.7744 44 26.6664V8.2249C43.9206 8.1326 43.7594 7.9753 43.4533 7.7571C42.5778 7.1329 41.0846 6.4538 38.9635 5.8449ZM44.0682 8.3221C44.0682 8.3221 44.0584 8.3102 44.0481 8.286C44.0647 8.3098 44.0682 8.3221 44.0682 8.3221ZM3.9318 8.3216C3.9318 8.3216 3.9354 8.3093 3.952 8.2855C3.9417 8.3097 3.9318 8.3216 3.9318 8.3216ZM24 9.13581e-08C34.8459 0.000560091 48 2.66666 48 7.9997V26.6664C48 41.3333 34.6667 53.3336 24 53.3333C13.3333 53.333 0 41.333 0 26.6664V7.9994C0 2.66611 13.1541 -0.000569909 24 9.13581e-08Z" fill="#D81E05"/>
<path d="M30.6 18.4662L20.4 28.6662L17.4 25.6662C16.6 24.8662 15.4 24.8662 14.6 25.6662C13.8 26.4662 13.8 27.6662 14.6 28.4662L18 31.8662C18.6 32.4662 19.6 32.8662 20.4 32.8662C21.4 32.8662 22.2 32.4662 22.8 31.8662L33.4 21.2662C34.2 20.4662 34.2 19.2662 33.4 18.4662C32.6 17.6662 31.4 17.6662 30.6 18.4662Z" fill="#D81E05"/>
</svg>
