<svg width="29" height="29" viewBox="0 0 29 29" fill="none" xmlns="http://www.w3.org/2000/svg">
<path d="M11.6909 11.6904C11.1472 11.6904 10.7847 12.0529 10.7847 12.5967V20.1186C10.7847 20.6623 11.1472 21.0248 11.6909 21.0248C12.2347 21.0248 12.5972 20.6623 12.5972 20.1186V12.5967C12.5972 12.0529 12.2347 11.6904 11.6909 11.6904Z" fill="#D81E05"/>
<path d="M17.3096 11.6904C16.7658 11.6904 16.4033 12.0529 16.4033 12.5967V20.1186C16.4033 20.6623 16.7658 21.0248 17.3096 21.0248C17.8533 21.0248 18.2158 20.6623 18.2158 20.1186V12.5967C18.2158 12.0529 17.8533 11.6904 17.3096 11.6904Z" fill="#D81E05"/>
<path d="M25.7377 6.07207H20.1189V5.16582C20.1189 3.6252 18.8502 2.35645 17.3096 2.35645H11.6908C10.9658 2.35645 10.2408 2.62832 9.69706 3.17207C9.15331 3.71582 8.88144 4.44082 8.88144 5.16582V6.07207H3.2627C2.71895 6.07207 2.35645 6.43457 2.35645 6.97832C2.35645 7.52207 2.71895 7.88457 3.2627 7.88457H5.16582V23.8346C5.16582 25.3752 6.43457 26.644 7.97519 26.644H21.0252C22.5658 26.644 23.8346 25.3752 23.8346 23.8346V7.88457H25.7377C26.2814 7.88457 26.6439 7.52207 26.6439 6.97832C26.6439 6.43457 26.2814 6.07207 25.7377 6.07207ZM10.6939 5.16582C10.6939 4.89394 10.8752 4.62207 11.0564 4.44082C11.2377 4.25957 11.4189 4.16895 11.6908 4.16895H17.2189C17.7627 4.16895 18.2158 4.62207 18.2158 5.16582V6.07207H10.6939V5.16582ZM22.1127 23.8346C22.1127 24.3783 21.6596 24.8315 21.1158 24.8315H7.97519C7.43145 24.8315 6.97832 24.3783 6.97832 23.8346V7.88457H22.1127V23.8346Z" fill="#D81E05"/>
</svg>
