<svg width="17" height="17" viewBox="0 0 17 17" fill="none" xmlns="http://www.w3.org/2000/svg">
<g clip-path="url(#clip0_109_4163)">
<path d="M8.5 17C9.06359 17 9.60409 16.7761 10.0026 16.3776C10.4011 15.979 10.625 15.4385 10.625 14.875H6.375C6.375 15.4385 6.59888 15.979 6.9974 16.3776C7.39591 16.7761 7.93641 17 8.5 17ZM8.5 2.03783L7.65319 2.20889C6.69265 2.4046 5.82923 2.92619 5.20907 3.68536C4.58891 4.44454 4.2501 5.39467 4.25 6.37495C4.25 7.0422 4.10762 8.70926 3.76231 10.3508C3.59231 11.1658 3.36281 12.0147 3.05788 12.75H13.9421C13.6372 12.0147 13.4087 11.1668 13.2377 10.3508C12.8924 8.70926 12.75 7.0422 12.75 6.37495C12.7497 5.39486 12.4107 4.44497 11.7906 3.68602C11.1705 2.92706 10.3072 2.40563 9.34681 2.20995L8.5 2.03677V2.03783ZM15.1088 12.75C15.3457 13.2249 15.6198 13.601 15.9375 13.8125H1.0625C1.38019 13.601 1.65431 13.2249 1.89125 12.75C2.8475 10.8375 3.1875 7.30995 3.1875 6.37495C3.1875 3.8037 5.015 1.65745 7.44281 1.16764C7.42798 1.0199 7.44428 0.8707 7.49066 0.72965C7.53704 0.5886 7.61246 0.458836 7.71207 0.348727C7.81168 0.238619 7.93327 0.15061 8.06898 0.0903766C8.20469 0.0301435 8.35152 -0.000976562 8.5 -0.000976562C8.64848 -0.000976563 8.79531 0.0301435 8.93102 0.0903766C9.06674 0.15061 9.18832 0.238619 9.28793 0.348727C9.38754 0.458836 9.46296 0.5886 9.50934 0.72965C9.55572 0.8707 9.57202 1.0199 9.55719 1.16764C10.7581 1.41191 11.8377 2.06371 12.6132 3.01267C13.3887 3.96163 13.8123 5.14944 13.8125 6.37495C13.8125 7.30995 14.1525 10.8375 15.1088 12.75Z" fill="#363636"/>
<circle cx="12.952" cy="3.23814" r="2.42857" fill="#E87D00"/>
</g>
<defs>
<clipPath id="clip0_109_4163">
<rect width="17" height="17" fill="white"/>
</clipPath>
</defs>
</svg>
