<svg width="15" height="16" viewBox="0 0 15 16" fill="none" xmlns="http://www.w3.org/2000/svg">
<path fill-rule="evenodd" clip-rule="evenodd" d="M-0.00683594 1.66331C0.0320884 1.52205 0.0619962 1.3775 0.111476 1.24017C0.37581 0.50611 1.05141 0.00830451 1.82572 0.00500827C3.70193 -0.00295454 5.57818 0.000453014 7.45439 0.00256409C7.82659 0.00297149 8.09342 0.271263 8.09393 0.628589C8.09448 0.987398 7.83487 1.25202 7.45615 1.25506C6.67444 1.26132 5.89262 1.25736 5.11087 1.25739C4.06039 1.25747 3.00991 1.25832 1.95943 1.25676C1.7055 1.25639 1.46969 1.31521 1.34749 1.55461C1.27745 1.69183 1.246 1.86397 1.24563 2.02053C1.23951 4.45456 1.24134 6.88862 1.24134 9.32269C1.24134 10.5916 1.24244 11.8605 1.24035 13.1293C1.23999 13.3505 1.28173 13.5498 1.4548 13.7035C1.60475 13.8366 1.78431 13.863 1.97409 13.863C3.76237 13.8624 5.55065 13.8624 7.33894 13.8633C7.43148 13.8633 7.52641 13.861 7.61617 13.8797C7.91745 13.9426 8.11449 14.2269 8.09034 14.5505C8.06805 14.8491 7.82619 15.0923 7.52758 15.1154C7.48866 15.1183 7.44948 15.1187 7.41041 15.1187C5.57327 15.1188 3.73609 15.1212 1.89899 15.1178C0.977377 15.1161 0.250057 14.5325 0.0396019 13.6396C0.0251978 13.5783 0.00870444 13.5177 -0.00679931 13.4567C-0.00683596 9.52557 -0.00683594 5.59446 -0.00683594 1.66331Z" fill="#363636"/>
<path fill-rule="evenodd" clip-rule="evenodd" d="M15.0071 7.67855C14.8993 7.83374 14.8116 8.00929 14.6807 8.14103C13.4968 9.33297 12.3002 10.512 11.1191 11.7067C10.7433 12.087 10.3555 11.9927 10.1491 11.7791C9.93664 11.5591 9.86293 11.1676 10.2407 10.7998C11.0782 9.98447 11.8989 9.15153 12.7286 8.32802C12.7648 8.29202 12.823 8.27865 12.871 8.25473C12.8539 8.23225 12.8369 8.20977 12.8199 8.18728C12.7633 8.18728 12.7067 8.18728 12.6502 8.18728C10.329 8.18725 8.00787 8.18751 5.6867 8.18703C5.30717 8.18691 5.06454 8.00788 4.99545 7.68107C4.91951 7.32197 5.18494 6.96346 5.54761 6.93723C5.61571 6.93231 5.68432 6.93298 5.75271 6.93298C8.04943 6.93279 10.3462 6.93283 12.6429 6.93283C12.7006 6.93283 12.7582 6.93283 12.8562 6.93283C12.7962 6.86835 12.7603 6.82712 12.7216 6.78857C11.8871 5.95588 11.0532 5.12264 10.217 4.29169C10.035 4.11084 9.92846 3.90822 9.98777 3.64274C10.0878 3.19467 10.6075 3.00357 10.9692 3.28315C11.0194 3.32201 11.0656 3.36656 11.1107 3.4116C12.3212 4.61857 13.5326 5.82451 14.7389 7.03575C14.8459 7.14323 14.9184 7.28571 15.007 7.41193C15.0071 7.50078 15.0071 7.58967 15.0071 7.67855Z" fill="#363636"/>
</svg>
