<svg width="24" height="24" viewBox="0 0 24 24" fill="none" xmlns="http://www.w3.org/2000/svg">
<path fill-rule="evenodd" clip-rule="evenodd" d="M12.8917 24C12.5946 24 12.2982 24 12.0012 24C12.0006 20.6751 12.0006 17.3497 12 14.0248C12.0838 14.0424 12.1219 14.1168 12.1746 14.1701C13.3961 15.3887 14.6176 16.6079 15.8338 17.8319C15.9445 17.9438 16.0043 17.9613 16.1238 17.8383C16.6851 17.2624 17.2533 16.6929 17.8304 16.1328C17.9628 16.0045 17.9435 15.9436 17.8245 15.8258C16.6001 14.6095 15.3845 13.385 14.1583 12.1705C14.0194 12.0328 14.0194 11.9672 14.1583 11.8295C15.3845 10.615 16.6001 9.39049 17.8245 8.1742C17.9435 8.05585 17.9634 7.99551 17.8304 7.8672C17.2586 7.31296 16.695 6.74993 16.1408 6.17752C16.0066 6.03925 15.9399 6.06093 15.8174 6.18455C14.607 7.40377 13.3908 8.61654 12.1746 9.8299C12.1213 9.88263 12.0832 9.95762 12 9.9752C12 6.65033 12.0006 3.32487 12.0012 0C12.2982 0 12.5946 0 12.8917 0C12.904 0.0515575 12.9462 0.044527 12.9836 0.0462846C13.6392 0.0767504 14.2819 0.194512 14.9152 0.357973C17.3535 0.987208 19.4034 2.25212 21.0555 4.15155C22.5735 5.89688 23.5108 7.91583 23.8688 10.2043C23.9133 10.4902 23.8998 10.7849 24 11.062C24 11.7024 24 12.3433 24 12.9837C23.9484 12.996 23.9549 13.0382 23.9525 13.0757C23.9285 13.4647 23.8723 13.8508 23.7955 14.2322C23.2114 17.13 21.7714 19.5157 19.4714 21.37C17.8081 22.7111 15.9117 23.5407 13.7962 23.8688C13.4951 23.9156 13.1852 23.9045 12.8917 24Z" fill="#BE1F24"/>
<path fill-rule="evenodd" clip-rule="evenodd" d="M11.9951 0.00234352C11.9951 3.32713 11.9945 6.65251 11.9939 9.9773C11.9998 9.98433 12.001 9.99194 11.9974 10.0001C11.9342 9.94332 11.8674 9.88883 11.8071 9.82849C10.5971 8.61985 9.38594 7.41179 8.18122 6.19788C8.05764 6.07309 7.9897 6.05375 7.85617 6.19143C7.31267 6.75211 6.7598 7.30399 6.1999 7.84826C6.06402 7.98008 6.05114 8.04863 6.19463 8.19041C7.41575 9.39905 8.62515 10.6194 9.8451 11.8292C9.98332 11.9663 9.98332 12.036 9.8451 12.1731C8.62515 13.3824 7.41575 14.6033 6.19463 15.8119C6.05114 15.9537 6.06461 16.0223 6.20048 16.1541C6.76038 16.6984 7.31325 17.2502 7.85676 17.8115C7.99029 17.9492 8.05822 17.9293 8.1818 17.8045C9.38652 16.5906 10.5977 15.3831 11.8077 14.1739C11.868 14.1135 11.9342 14.0596 11.998 14.0022C12.0015 14.0104 12.0004 14.018 11.9945 14.025C11.9951 17.3498 11.9951 20.6752 11.9957 24C11.6987 24 11.4024 24 11.1055 24C11.0809 23.9443 11.0287 23.9566 10.9848 23.9537C10.5098 23.9197 10.039 23.85 9.57394 23.7528C4.63909 22.717 0.85332 18.688 0.125919 13.7087C0.0860935 13.4363 0.0948784 13.1556 0 12.8908C0 12.2973 0 11.7033 0 11.1098C0.0556386 11.0852 0.0433396 11.033 0.0462679 10.9891C0.0802368 10.514 0.149931 10.0429 0.247153 9.57774C1.28262 4.64123 5.31026 0.854193 10.2879 0.125961C10.5602 0.0861224 10.8413 0.0949103 11.1055 0C11.4012 0.00234346 11.6982 0.00234352 11.9951 0.00234352Z" fill="#E04F5F"/>
<path fill-rule="evenodd" clip-rule="evenodd" d="M12 9.94512C12.0849 9.92731 12.1235 9.8519 12.1769 9.79787C13.4091 8.56816 14.6413 7.33845 15.8676 6.10339C15.9916 5.97811 16.0593 5.95614 16.1952 6.09627C16.7567 6.67579 17.3277 7.24641 17.907 7.80872C18.0412 7.93875 18.0216 8.00051 17.9011 8.11986C16.6606 9.35253 15.4289 10.5935 14.1866 11.8244C14.046 11.964 14.046 12.0305 14.1866 12.17C15.4289 13.4009 16.6606 14.6419 17.9011 15.8746C18.0216 15.9945 18.0417 16.0557 17.907 16.1857C17.3224 16.7534 16.7472 17.3311 16.178 17.9142C16.0569 18.0383 15.9964 18.0205 15.8842 17.9077C14.652 16.6673 13.4144 15.4316 12.1769 14.1966C12.1229 14.1431 12.0843 14.0671 12 14.0493C12.0059 14.0422 12.0071 14.0345 12.0036 14.0261C12.0036 12.6735 12.0036 11.3215 12.0036 9.96887C12.0071 9.95997 12.0059 9.95225 12 9.94512Z" fill="#D2D2D7"/>
<path fill-rule="evenodd" clip-rule="evenodd" d="M12 9.96555C12 11.3215 12 12.6775 12 14.0329C11.9357 14.0907 11.8679 14.146 11.8066 14.2074C10.5773 15.4354 9.34677 16.6628 8.1228 17.8962C7.99725 18.023 7.92822 18.0432 7.79256 17.9033C7.24037 17.3336 6.67867 16.7729 6.10982 16.2193C5.97177 16.0854 5.95868 16.0157 6.10387 15.8717C7.3445 14.6437 8.57323 13.4038 9.81268 12.1745C9.9531 12.0353 9.9531 11.9644 9.81268 11.8251C8.57323 10.5965 7.3445 9.356 6.10387 8.12799C5.95809 7.98394 5.97118 7.91429 6.10923 7.78036C6.67807 7.22736 7.23978 6.66663 7.79196 6.09697C7.92763 5.95708 7.99665 5.97673 8.1222 6.10352C9.34618 7.33689 10.5767 8.56372 11.806 9.79233C11.8679 9.85245 11.9357 9.90781 12 9.96555Z" fill="#E6E5E5"/>
</svg>
