<svg width="22" height="22" viewBox="0 0 22 22" fill="none" xmlns="http://www.w3.org/2000/svg">
<path d="M15.6812 6.31826C16.0392 6.67624 16.0392 7.2566 15.6812 7.61458L12.2961 10.9998L15.6812 14.385C16.0392 14.743 16.0392 15.3233 15.6812 15.6812C15.3233 16.0392 14.7429 16.0392 14.385 15.6812L10.9998 12.296L7.61458 15.6812C7.2566 16.0392 6.67624 16.0392 6.31826 15.6812C5.96032 15.3233 5.96032 14.743 6.31826 14.385L9.70345 10.9998L6.31826 7.61458C5.96032 7.2566 5.96032 6.67624 6.31826 6.31826C6.67624 5.96032 7.2566 5.96032 7.61458 6.31826L10.9998 9.7035L14.385 6.31826C14.7429 5.96032 15.3233 5.96032 15.6812 6.31826Z" fill="#2D373D"/>
<path fill-rule="evenodd" clip-rule="evenodd" d="M0 2.26107C0 1.01232 1.01232 0 2.26107 0H19.7389C20.9876 0 22 1.01232 22 2.26107V19.7389C22 20.9876 20.9876 22 19.7389 22H2.26107C1.01232 22 0 20.9876 0 19.7389V2.26107ZM2.26107 1.83324C2.02477 1.83324 1.83324 2.02477 1.83324 2.26107V19.7389C1.83324 19.9752 2.02477 20.1668 2.26107 20.1668H19.7389C19.9752 20.1668 20.1668 19.9752 20.1668 19.7389V2.26107C20.1668 2.02477 19.9752 1.83324 19.7389 1.83324H2.26107Z" fill="#2D373D"/>
</svg>
