<svg width="30" height="30" viewBox="0 0 30 30" fill="none" xmlns="http://www.w3.org/2000/svg">
<path d="M25.4063 4.59375C24.1875 3.375 22.1249 3.375 20.9062 4.59375L11.3438 14.25C11.1563 14.4375 11.0625 14.625 11.0625 14.8125L10.5 18.5625C10.5 18.8438 10.5938 19.125 10.7813 19.3125C10.9688 19.5 11.1562 19.5938 11.4375 19.5938H11.5313L15.2812 19.0313C15.4687 19.0313 15.6562 18.9375 15.8438 18.75L25.4063 9.09375C25.9688 8.53125 26.3438 7.6875 26.3438 6.84375C26.3438 6 25.9688 5.15625 25.4063 4.59375ZM24.0938 7.78125L14.7188 17.1563L12.5625 17.4375L12.8438 15.2813L22.2188 5.90625C22.6875 5.34375 23.5313 5.34375 24.0938 5.90625C24.6563 6.375 24.6563 7.21875 24.0938 7.78125Z" fill="#D81E05"/>
<path d="M22.7812 15.2808C22.2188 15.2808 21.8438 15.6558 21.8438 16.2183V23.812C21.8438 23.9058 21.75 24.0933 21.6563 24.187C21.5625 24.2808 21.4688 24.3745 21.2813 24.3745H6.1875C5.90625 24.3745 5.625 24.0933 5.625 23.812V8.71826C5.625 8.34326 5.90625 8.06201 6.1875 8.15576H13.7812C14.3438 8.15576 14.7188 7.78076 14.7188 7.21826C14.7188 6.65576 14.3438 6.28076 13.7812 6.28076H6.1875C4.875 6.28076 3.75 7.40576 3.75 8.71826V23.812C3.75 25.1245 4.875 26.2495 6.1875 26.2495H21.2813C21.9375 26.2495 22.5938 25.9683 22.9688 25.4995C23.4375 25.1245 23.7188 24.4683 23.7188 23.812V16.2183C23.7188 15.6558 23.3438 15.2808 22.7812 15.2808Z" fill="#D81E05"/>
</svg>
