<svg width="25" height="19" viewBox="0 0 25 19" fill="none" xmlns="http://www.w3.org/2000/svg">
<path fill-rule="evenodd" clip-rule="evenodd" d="M0.0058739 11.7736C0.111501 11.3658 0.176046 10.9403 0.331553 10.5501C0.927172 9.06251 2.02451 8.13828 3.58544 7.77152C3.76736 7.7275 3.81723 7.65415 3.84071 7.47811C4.2104 4.48241 5.73319 2.27304 8.41201 0.87642C9.68834 0.210383 11.0674 -0.059552 12.5021 0.010866C14.2655 0.0988885 15.8528 0.688637 17.2465 1.78305C18.6608 2.89507 19.6114 4.3181 20.1043 6.04627C20.1601 6.23992 20.2569 6.32208 20.4418 6.37783C22.9739 7.10548 24.5994 9.69921 24.1475 12.29C23.7661 14.4876 22.214 16.119 20.0281 16.6207C19.8432 16.6618 19.6554 16.7029 19.4676 16.7029C18.294 16.7117 17.1204 16.7058 15.9291 16.7058C15.9291 16.2334 15.9291 15.7434 15.9291 15.2241C16.0201 15.2241 16.1022 15.2241 16.1873 15.2241C17.0793 15.2241 17.9683 15.227 18.8603 15.2241C20.7586 15.2182 22.2668 13.98 22.6423 12.1257C23.0414 10.1599 21.6829 8.11481 19.7082 7.75685C19.1478 7.65416 18.8808 7.37835 18.7371 6.83261C17.9977 4.03056 16.1815 2.31119 13.356 1.7185C10.6595 1.15222 7.78119 2.46962 6.34643 4.82569C5.7332 5.83502 5.38111 6.92356 5.34004 8.106C5.3371 8.19109 5.3283 8.27911 5.3195 8.3642C5.27255 8.90994 5.01435 9.1476 4.47448 9.17401C3.35953 9.23269 2.50277 9.73736 1.93943 10.6997C0.806869 12.6392 2.18882 15.1507 4.4334 15.2123C5.6305 15.2446 6.83054 15.2211 8.02765 15.2211C8.12154 15.2211 8.21543 15.2211 8.32399 15.2211C8.32399 15.7287 8.32399 16.2187 8.32399 16.7351C8.24184 16.7351 8.16556 16.7351 8.08633 16.7351C6.94498 16.7351 5.80068 16.7381 4.65639 16.7351C2.32966 16.7293 0.536937 15.2622 0.0733521 12.9854C0.0498794 12.8651 0.0234727 12.7419 0 12.6216C0.00586817 12.3399 0.0058739 12.0553 0.0058739 11.7736Z" fill="#9E9E9E"/>
<path fill-rule="evenodd" clip-rule="evenodd" d="M12.8922 18.5673C12.367 18.5673 11.8858 18.5673 11.3782 18.5673C11.3782 16.1702 11.3782 13.7819 11.3782 11.3554C10.7914 11.951 10.2398 12.5173 9.69697 13.0689C9.295 12.6669 8.94585 12.3177 8.58496 11.9598C9.06908 11.4757 9.56494 10.9827 10.0608 10.4869C10.5449 10.0028 11.0291 9.5157 11.5161 9.03451C11.9181 8.6384 12.3347 8.63547 12.7337 9.03451C13.6756 9.97341 14.6174 10.9182 15.5593 11.86C15.5974 11.8982 15.6297 11.9392 15.6561 11.9686C15.304 12.3177 14.9578 12.661 14.6028 13.0161C14.0658 12.4762 13.5084 11.9158 12.9509 11.3554C12.9303 11.3642 12.9127 11.3759 12.8922 11.3847C12.8922 13.7701 12.8922 16.1585 12.8922 18.5673Z" fill="#9E9E9E"/>
</svg>
