<svg width="24" height="24" viewBox="0 0 24 24" fill="none" xmlns="http://www.w3.org/2000/svg">
<path d="M11.2666 23.9998C11.1417 24.0026 11.0176 23.9793 10.9021 23.9314C10.7867 23.8834 10.6826 23.8119 10.5964 23.7214C10.4873 23.6119 10.4062 23.4777 10.36 23.3301C10.3137 23.1826 10.3037 23.026 10.3309 22.8738L11.0769 19.1922C11.1143 19.0076 11.2018 18.8369 11.3298 18.6988L18.8282 11.2092C19.103 10.9239 19.4348 10.6997 19.8019 10.5513C20.5435 10.2483 21.3743 10.2483 22.1159 10.5513C22.4852 10.7027 22.8205 10.9264 23.1022 11.2092C23.3872 11.49 23.6134 11.8248 23.7675 12.1941C23.9217 12.5634 24.0007 12.9597 24 13.3599C23.9912 14.1625 23.669 14.9299 23.1022 15.498L15.6164 22.9876C15.4874 23.1236 15.3196 23.2164 15.1359 23.2533L11.4563 23.9871L11.2666 23.9998ZM12.8725 19.8374L12.4805 21.849L14.529 21.4442L21.8124 14.1569C22.0193 13.9365 22.1404 13.6493 22.1539 13.3472C22.1496 13.0469 22.0269 12.7605 21.8124 12.5502C21.7072 12.4435 21.5828 12.3577 21.4458 12.2972C21.1692 12.1898 20.8625 12.1898 20.5859 12.2972C20.4471 12.3546 20.3222 12.4409 20.2192 12.5502L12.8725 19.8374ZM8.32036 21.052H2.42783C2.11041 21.0539 1.79584 20.9922 1.50265 20.8705C1.20946 20.7488 0.943616 20.5697 0.720759 20.3435C0.494161 20.1203 0.313843 19.8545 0.190157 19.5614C0.066471 19.2683 0.00184932 18.9537 0 18.6356V2.42907C0.0031628 1.78271 0.262356 1.16396 0.720759 0.708477C1.17418 0.256394 1.78768 0.00176789 2.42783 3.01804e-06H17.1591C17.4763 -0.000499876 17.7905 0.0618498 18.0835 0.183446C18.3765 0.305047 18.6425 0.483489 18.8662 0.708477C19.0937 0.933598 19.2746 1.20149 19.3982 1.49677C19.5219 1.79206 19.5861 2.10893 19.587 2.42907V9.0584C19.5836 9.30905 19.4827 9.54849 19.3055 9.72574C19.1284 9.90298 18.8891 10.004 18.6386 10.0073C18.3881 10.004 18.1488 9.90298 17.9716 9.72574C17.7945 9.54849 17.6935 9.30905 17.6902 9.0584V2.42907C17.6925 2.36061 17.6801 2.29248 17.654 2.22924C17.6278 2.16595 17.5884 2.10902 17.5384 2.0622C17.4914 2.01172 17.4346 1.9712 17.3717 1.94297C17.3087 1.9147 17.2407 1.89933 17.1718 1.89771H2.42783C2.29084 1.90027 2.15987 1.9545 2.06114 2.04953C1.95853 2.14944 1.89945 2.28584 1.89674 2.42907V18.6356C1.89684 18.7048 1.91154 18.7733 1.93989 18.8365C1.9682 18.8997 2.0095 18.9563 2.06114 19.0024C2.1079 19.0524 2.16485 19.0918 2.22806 19.118C2.29131 19.1442 2.3594 19.1566 2.42783 19.1542H8.32036C8.57083 19.1575 8.81015 19.2586 8.9873 19.4358C9.16446 19.613 9.26541 19.8525 9.26873 20.1031C9.26873 20.2277 9.24417 20.3511 9.19651 20.4662C9.14886 20.5814 9.07901 20.6859 8.99095 20.7741C8.9029 20.8622 8.79834 20.9321 8.68326 20.9798C8.56822 21.0274 8.44488 21.052 8.32036 21.052ZM12.7334 15.169H5.37407C5.12256 15.169 4.88135 15.0691 4.70348 14.8911C4.52562 14.7132 4.4257 14.4719 4.4257 14.2202C4.424 14.0951 4.44738 13.971 4.49446 13.8551C4.5415 13.7392 4.6113 13.6339 4.69969 13.5455C4.78808 13.457 4.89334 13.3872 5.00914 13.3401C5.12498 13.293 5.24908 13.2697 5.37407 13.2713H12.7334C12.8584 13.2697 12.9825 13.293 13.0983 13.3401C13.2142 13.3872 13.3194 13.457 13.4078 13.5455C13.4962 13.6339 13.566 13.7392 13.6131 13.8551C13.6601 13.971 13.6835 14.0951 13.6818 14.2202C13.6818 14.3448 13.6572 14.4682 13.6096 14.5833C13.5619 14.6985 13.4921 14.803 13.404 14.8911C13.3159 14.9793 13.2114 15.0492 13.0963 15.0968C12.9813 15.1445 12.858 15.169 12.7334 15.169ZM14.2129 10.7411H5.36146C5.23642 10.7428 5.11232 10.7194 4.99653 10.6723C4.88068 10.6252 4.77546 10.5554 4.68703 10.4669C4.59864 10.3785 4.52884 10.2732 4.4818 10.1573C4.43471 10.0414 4.41138 9.91726 4.41309 9.7922C4.41309 9.54057 4.513 9.29922 4.69082 9.12127C4.86869 8.94331 5.1099 8.84335 5.36146 8.84335H14.2129C14.4634 8.84662 14.7027 8.94763 14.8798 9.12487C15.057 9.30212 15.1579 9.54156 15.1612 9.7922C15.1612 10.0438 15.0613 10.2852 14.8834 10.4631C14.7056 10.6411 14.4644 10.7411 14.2129 10.7411ZM14.2129 6.3257H8.32036C8.06881 6.3257 7.82759 6.22574 7.64973 6.04782C7.47191 5.86987 7.372 5.62852 7.372 5.37684C7.37029 5.25178 7.39362 5.12762 7.44071 5.01172C7.48774 4.89586 7.55754 4.79059 7.64593 4.70211C7.73437 4.61367 7.83959 4.54384 7.95543 4.49678C8.07123 4.44966 8.19532 4.42632 8.32036 4.42798H14.2129C14.4644 4.42798 14.7056 4.52799 14.8834 4.7059C15.0613 4.88386 15.1612 5.1252 15.1612 5.37684C15.1579 5.62748 15.057 5.86692 14.8798 6.04417C14.7027 6.22142 14.4634 6.32242 14.2129 6.3257Z" fill="#2D373D"/>
</svg>
