<svg width="18" height="18" viewBox="0 0 18 18" fill="none" xmlns="http://www.w3.org/2000/svg">
<path d="M17.7757 16.7304L13.1405 12.1C13.5891 11.5026 13.9629 10.9051 14.2619 10.1583C15.0095 8.2912 14.9348 6.27476 14.1872 4.48237C13.4395 2.68997 12.0191 1.271 10.15 0.524179C8.281 -0.222651 6.26244 -0.147968 4.46817 0.598862C0.730099 2.24187 -0.989416 6.57349 0.580575 10.3076C1.77675 13.0709 4.46817 14.7886 7.38387 14.7886C8.35577 14.7886 9.32767 14.5646 10.2996 14.1912C10.9724 13.8924 11.5705 13.5937 12.0938 13.1456L16.7291 17.776C16.8786 17.9253 17.0281 18 17.2524 18C17.4767 18 17.6262 17.9253 17.7757 17.776C18.0748 17.4772 18.0748 17.0291 17.7757 16.7304ZM9.70147 12.8469C6.71101 14.1165 3.19722 12.6975 1.92628 9.71018C0.655337 6.72286 2.0758 3.21275 5.06626 2.09251C6.48673 1.42036 8.05672 1.42036 9.55195 2.01783C10.9724 2.61529 12.1686 3.73554 12.7667 5.15451C13.4395 6.57349 13.4395 8.14184 12.8415 9.6355C12.2434 11.0545 11.1219 12.2494 9.70147 12.8469Z" fill="#D9D9D9"/>
</svg>
