<svg width="534" height="396" viewBox="0 0 534 396" fill="none" xmlns="http://www.w3.org/2000/svg">
<path d="M503.579 323.808H107.336C97.8574 323.808 90.1709 316.121 90.1709 306.644V98.5265C90.1709 89.046 97.8558 81.3611 107.336 81.3611H503.581C513.06 81.3611 520.746 89.046 520.746 98.5265V306.642C520.745 316.121 513.06 323.808 503.579 323.808Z" fill="#F5F5F5"/>
<path d="M503.578 325.392H107.335C96.9973 325.392 88.585 316.982 88.585 306.644V98.5265C88.585 88.1886 96.9957 79.7762 107.335 79.7762H503.58C513.918 79.7762 522.33 88.1886 522.33 98.5265V306.642C522.329 316.982 513.918 325.392 503.578 325.392ZM107.335 82.9459C98.7454 82.9459 91.7547 89.9351 91.7547 98.5265V306.642C91.7547 315.232 98.7438 322.221 107.335 322.221H503.58C512.171 322.221 519.16 315.232 519.16 306.642V98.5265C519.16 89.9351 512.171 82.9459 503.58 82.9459H107.335Z" fill="#E0E0E0"/>
<path d="M89.1123 230.119H157.227V265.425H219.315V306.916H430.127V241.213H473.629V155.536H519.688V299.819C519.688 312.897 509.087 323.498 496.009 323.498H114.895C100.656 323.498 89.1123 311.954 89.1123 297.713V230.119Z" fill="#E0E0E0"/>
<path d="M205.217 159.717C205.185 162.154 204.651 203.474 203.743 273.491L203.741 273.612H203.619C149.638 273.623 78.5433 273.639 0.164824 273.653H0V273.488C0 266.787 0 259.611 0 252.383C0.00316969 209.79 0.00792418 169.037 0.0110939 131.668V131.513H0.166408C42.8447 131.526 81.2059 131.538 113.316 131.548H113.426L113.435 131.657C113.789 135.665 115.278 139.42 117.439 142.57C119.592 145.737 122.347 148.331 125.296 150.431C131.265 154.618 138.062 156.479 144.356 157.438C150.693 158.398 156.678 158.5 162.163 158.652C167.659 158.783 172.682 158.904 177.202 159.013C195.036 159.462 204.063 159.688 205.217 159.717C204.061 159.693 195.022 159.508 177.164 159.14C172.653 159.042 167.642 158.934 162.158 158.814C156.671 158.671 150.682 158.581 144.327 157.625C138.016 156.672 131.184 154.815 125.173 150.607C122.203 148.498 119.428 145.889 117.252 142.697C115.069 139.524 113.557 135.732 113.198 131.676L113.316 131.786C81.2059 131.795 42.8447 131.808 0.166408 131.82L0.320138 131.667C0.323308 169.037 0.326478 209.788 0.331232 252.381C0.331232 259.611 0.331232 266.787 0.331232 273.487L0.166408 273.322C78.5465 273.339 149.641 273.353 203.621 273.363L203.497 273.485C204.556 203.473 205.18 162.151 205.217 159.717Z" fill="#EBEBEB"/>
<path d="M285.752 395.616C285.752 395.616 285.728 394.859 285.718 393.418C285.71 391.963 285.698 389.832 285.683 387.047C285.664 381.453 285.637 373.243 285.603 362.709C285.563 341.648 285.503 311.299 285.433 274.057L285.753 274.376C229.968 274.401 157.384 274.433 78.2826 274.471H78.2652L78.6773 274.057C78.6662 317.092 78.6567 358.195 78.6472 395.615L78.2636 395.231C139.047 395.307 190.867 395.372 227.512 395.417C245.848 395.461 260.385 395.498 270.358 395.521C275.334 395.542 279.168 395.556 281.78 395.567C283.068 395.578 284.053 395.585 284.732 395.591C285.4 395.602 285.752 395.616 285.752 395.616C285.752 395.616 285.431 395.632 284.782 395.639C284.11 395.645 283.141 395.653 281.872 395.662C279.277 395.673 275.471 395.689 270.528 395.71C260.575 395.734 246.069 395.769 227.768 395.813C191.06 395.857 139.152 395.922 78.2652 395.998L77.8817 396V395.616C77.8722 358.197 77.8627 317.094 77.8516 274.059V273.645H78.2652H78.2811C157.382 273.68 229.965 273.713 285.752 273.74H286.07V274.059C285.999 311.383 285.942 341.798 285.902 362.907C285.867 373.413 285.84 381.595 285.821 387.176C285.805 389.935 285.793 392.044 285.786 393.486C285.774 394.905 285.752 395.616 285.752 395.616Z" fill="#E0E0E0"/>
<path d="M276.517 281.408C276.553 281.541 275.548 281.572 274.87 282.737C274.556 283.286 274.35 284.099 274.645 284.829C274.914 285.565 275.791 286.048 276.737 286.001C277.686 285.956 278.51 285.39 278.707 284.631C278.93 283.877 278.647 283.086 278.281 282.571C277.494 281.479 276.49 281.544 276.517 281.408C276.51 281.368 276.738 281.263 277.168 281.314C277.596 281.36 278.209 281.62 278.737 282.206C279.236 282.78 279.701 283.729 279.441 284.832C279.198 285.961 277.998 286.788 276.777 286.825C275.556 286.907 274.284 286.199 273.933 285.099C273.569 284.024 273.938 283.035 274.38 282.417C274.849 281.785 275.436 281.465 275.857 281.379C276.28 281.287 276.517 281.368 276.517 281.408Z" fill="#E0E0E0"/>
<path d="M87.1475 281.408C87.1855 281.541 86.1791 281.572 85.5008 282.737C85.187 283.286 84.981 284.099 85.2758 284.829C85.5436 285.565 86.42 286.048 87.3678 286.001C88.3171 285.956 89.1412 285.39 89.3377 284.631C89.5612 283.877 89.2775 283.086 88.9114 282.571C88.1269 281.479 87.1221 281.544 87.1475 281.408C87.1427 281.368 87.3678 281.263 87.7988 281.314C88.2252 281.36 88.8401 281.62 89.3678 282.206C89.8671 282.78 90.3314 283.729 90.0715 284.832C89.829 285.961 88.6293 286.788 87.4074 286.825C86.1886 286.907 84.9144 286.199 84.5642 285.099C84.1997 284.024 84.5689 283.035 85.0111 282.417C85.4786 281.785 86.0666 281.465 86.4866 281.379C86.9129 281.287 87.149 281.368 87.1475 281.408Z" fill="#E0E0E0"/>
<path d="M276.75 384.388C276.788 384.521 275.784 384.552 275.105 385.717C274.792 386.266 274.585 387.079 274.88 387.808C275.15 388.545 276.025 389.028 276.972 388.981C277.92 388.936 278.746 388.37 278.941 387.613C279.166 386.857 278.882 386.066 278.516 385.551C277.73 384.457 276.727 384.522 276.75 384.388C276.746 384.348 276.972 384.243 277.403 384.294C277.83 384.34 278.445 384.6 278.971 385.186C279.472 385.76 279.934 386.709 279.674 387.812C279.434 388.941 278.234 389.768 277.01 389.805C275.792 389.887 274.519 389.179 274.169 388.079C273.804 387.004 274.173 386.015 274.616 385.397C275.083 384.765 275.671 384.445 276.091 384.359C276.517 384.266 276.752 384.346 276.75 384.388Z" fill="#E0E0E0"/>
<path d="M304.135 281.408C304.173 281.541 303.168 281.573 302.49 282.738C302.174 283.286 301.97 284.099 302.265 284.83C302.532 285.565 303.409 286.049 304.355 286.001C305.304 285.957 306.128 285.391 306.325 284.632C306.55 283.877 306.266 283.086 305.899 282.571C305.116 281.479 304.111 281.544 304.135 281.408C304.13 281.369 304.357 281.264 304.786 281.315C305.214 281.361 305.827 281.621 306.355 282.207C306.854 282.781 307.319 283.73 307.059 284.833C306.818 285.961 305.617 286.789 304.395 286.825C303.174 286.908 301.902 286.199 301.551 285.099C301.187 284.025 301.556 283.036 301.998 282.418C302.468 281.785 303.054 281.465 303.475 281.38C303.902 281.288 304.136 281.369 304.135 281.408Z" fill="#E0E0E0"/>
<path d="M304.37 384.388C304.407 384.521 303.402 384.552 302.723 385.717C302.41 386.266 302.204 387.079 302.498 387.808C302.768 388.545 303.644 389.028 304.59 388.981C305.54 388.936 306.364 388.37 306.56 387.613C306.784 386.857 306.5 386.066 306.134 385.551C305.348 384.457 304.343 384.522 304.37 384.388C304.364 384.348 304.592 384.243 305.021 384.294C305.448 384.34 306.063 384.6 306.591 385.186C307.09 385.76 307.554 386.709 307.294 387.812C307.052 388.941 305.852 389.768 304.63 389.805C303.41 389.887 302.137 389.179 301.787 388.079C301.422 387.004 301.792 386.015 302.234 385.397C302.703 384.765 303.289 384.445 303.709 384.359C304.134 384.266 304.37 384.346 304.37 384.388Z" fill="#E0E0E0"/>
<path d="M373.521 281.408C373.56 281.541 372.553 281.573 371.875 282.738C371.561 283.286 371.355 284.099 371.65 284.83C371.919 285.565 372.796 286.049 373.742 286.001C374.691 285.957 375.515 285.391 375.712 284.632C375.937 283.877 375.652 283.086 375.285 282.571C374.499 281.479 373.495 281.544 373.521 281.408C373.515 281.369 373.743 281.264 374.173 281.315C374.601 281.361 375.214 281.621 375.742 282.207C376.241 282.781 376.705 283.73 376.446 284.833C376.203 285.961 375.003 286.789 373.781 286.825C372.561 286.908 371.288 286.199 370.938 285.099C370.574 284.025 370.943 283.036 371.385 282.418C371.854 281.785 372.441 281.465 372.862 281.38C373.285 281.288 373.521 281.369 373.521 281.408Z" fill="#E0E0E0"/>
<path d="M373.756 384.388C373.794 384.521 372.789 384.553 372.111 385.718C371.797 386.266 371.591 387.079 371.886 387.808C372.156 388.545 373.03 389.028 373.978 388.981C374.926 388.936 375.752 388.371 375.947 387.613C376.172 386.857 375.888 386.066 375.522 385.551C374.736 384.458 373.732 384.523 373.756 384.388C373.751 384.348 373.978 384.244 374.409 384.294C374.836 384.34 375.45 384.6 375.977 385.187C376.477 385.76 376.942 386.71 376.682 387.813C376.439 388.941 375.24 389.768 374.016 389.805C372.797 389.887 371.525 389.179 371.175 388.079C370.81 387.004 371.179 386.016 371.621 385.397C372.089 384.765 372.677 384.445 373.097 384.359C373.523 384.266 373.758 384.347 373.756 384.388Z" fill="#E0E0E0"/>
<path d="M86.9129 384.388C86.9509 384.521 85.9461 384.553 85.2678 385.718C84.9524 386.266 84.7464 387.079 85.0427 387.808C85.3106 388.545 86.187 389.028 87.1347 388.981C88.0825 388.936 88.9082 388.371 89.1047 387.613C89.3297 386.857 89.0445 386.066 88.68 385.551C87.8923 384.458 86.8875 384.523 86.9129 384.388C86.9081 384.348 87.1347 384.244 87.5658 384.294C87.9921 384.34 88.6071 384.6 89.1348 385.187C89.6356 385.76 90.0984 386.71 89.8385 387.813C89.596 388.941 88.3963 389.769 87.1743 389.805C85.9556 389.887 84.6814 389.179 84.3327 388.079C83.9682 387.005 84.3375 386.016 84.7797 385.398C85.2472 384.765 85.8352 384.445 86.2551 384.359C86.6799 384.266 86.9144 384.347 86.9129 384.388Z" fill="#E0E0E0"/>
<path d="M352.422 395.616C352.422 395.616 352.405 395.402 352.397 395.006C352.392 394.581 352.383 394.003 352.373 393.255C352.362 391.691 352.345 389.428 352.324 386.505C352.299 380.605 352.264 372.05 352.218 361.29C352.174 339.766 352.109 309.431 352.033 274.059L352.422 274.449C334.208 274.455 314.301 274.463 293.577 274.472H293.569L293.981 274.059C293.94 321.067 293.901 363.869 293.874 395.616L293.571 395.312C311.671 395.382 326.344 395.437 336.527 395.477C341.603 395.51 345.557 395.534 348.278 395.553C349.606 395.567 350.628 395.578 351.353 395.586C352.05 395.596 352.422 395.616 352.422 395.616C352.422 395.616 352.091 395.637 351.413 395.648C350.703 395.656 349.698 395.667 348.394 395.681C345.69 395.699 341.756 395.724 336.71 395.757C326.485 395.795 311.747 395.853 293.569 395.921L293.265 395.922V395.618C293.236 363.87 293.198 321.068 293.157 274.06V273.647H293.571H293.579C314.302 273.655 334.209 273.663 352.424 273.67H352.814V274.06C352.738 309.54 352.673 339.965 352.627 361.553C352.581 372.276 352.545 380.801 352.521 386.679C352.499 389.565 352.484 391.8 352.472 393.347C352.462 394.079 352.454 394.642 352.448 395.054C352.438 395.434 352.43 395.624 352.422 395.616Z" fill="#E0E0E0"/>
<path d="M323.17 333.166C338.576 333.166 351.065 332.98 351.065 332.752C351.065 332.524 338.576 332.338 323.17 332.338C307.764 332.338 295.275 332.524 295.275 332.752C295.275 332.98 307.764 333.166 323.17 333.166Z" fill="#E0E0E0"/>
<path d="M532.878 395.617C532.878 395.617 532.852 394.846 532.841 393.387C532.833 391.908 532.821 389.753 532.805 386.939C532.784 381.283 532.756 373.006 532.719 362.422C532.678 341.267 532.618 310.922 532.545 274.059L532.879 274.393C485.207 274.415 426.021 274.441 362.036 274.473H362.022L362.436 274.059C362.421 317.579 362.409 358.875 362.398 395.617L362.024 395.241C412.461 395.317 455.125 395.382 485.204 395.426C500.254 395.469 512.15 395.504 520.307 395.526C524.372 395.547 527.502 395.561 529.638 395.571C530.688 395.582 531.488 395.588 532.049 395.594C532.591 395.602 532.878 395.617 532.878 395.617C532.878 395.617 532.619 395.631 532.09 395.639C531.539 395.643 530.751 395.651 529.721 395.661C527.602 395.672 524.497 395.686 520.464 395.705C512.326 395.729 500.46 395.762 485.445 395.805C455.306 395.849 412.56 395.914 362.02 395.991H361.646V395.617C361.634 358.873 361.621 317.579 361.608 274.059V273.645H362.022H362.036C426.021 273.675 485.207 273.702 532.879 273.724H533.214V274.059C533.141 311.008 533.081 341.426 533.039 362.631C533.003 373.18 532.973 381.434 532.954 387.074C532.936 389.86 532.924 391.995 532.916 393.458C532.902 394.895 532.878 395.617 532.878 395.617Z" fill="#E0E0E0"/>
<path d="M75.8115 40.4159V177H177.454V40.3893C177.453 40.3893 75.8115 41.5185 75.8115 40.4159Z" fill="#E0E0E0"/>
<path d="M75.8115 40.6989V61.9505L177.491 62.5708V40.416L75.8115 40.6989Z" fill="#EBEBEB"/>
<path d="M112.579 50.1932V54.3485H145.136V50.7474C145.136 50.7474 113.414 50.1932 112.579 50.1932Z" fill="white"/>
<path d="M113.311 71.7267H81.4814V105.856H113.311V71.7267Z" fill="#FAFAFA"/>
<path d="M108.858 141.602C108.858 141.602 109.344 141.583 110.268 141.575C111.24 141.569 112.59 141.561 114.303 141.55C117.854 141.541 122.9 141.527 129.096 141.51L129.004 141.6C128.996 131.45 128.985 118.022 128.975 103.328C128.975 100.413 128.975 97.5494 128.976 94.7692V94.6498H129.096C140.227 94.6602 150.303 94.6695 158.357 94.6776L158.266 94.768C158.365 88.4389 158.448 83.2785 158.506 79.6473C158.539 77.8931 158.566 76.5111 158.585 75.5175C158.605 74.5726 158.631 74.0741 158.631 74.0741C158.631 74.0741 158.643 74.5726 158.638 75.5175C158.631 76.5111 158.621 77.8931 158.609 79.6473C158.571 83.2785 158.516 88.4389 158.449 94.768L158.448 94.8584H158.357C150.303 94.8666 140.227 94.8758 129.096 94.8863L129.215 94.7669C129.215 97.5471 129.216 100.412 129.216 103.325C129.205 118.02 129.194 131.448 129.187 141.598V141.69H129.096C122.9 141.673 117.854 141.659 114.303 141.649C112.589 141.639 111.239 141.63 110.268 141.625C109.345 141.619 108.858 141.602 108.858 141.602Z" fill="#FAFAFA"/>
<path d="M168.774 151.713C168.774 151.713 167.936 151.736 166.364 151.744C164.747 151.751 162.452 151.762 159.551 151.773C153.64 151.784 145.27 151.797 135.24 151.816H135.135V151.712C135.131 141.904 135.125 130.338 135.119 117.992C135.12 112.56 135.121 107.28 135.123 102.241V102.122H135.24C142.481 102.128 149.242 102.133 155.311 102.137L155.209 102.239C155.226 92.8043 155.241 84.9576 155.252 79.4215C155.265 76.7085 155.274 74.5637 155.28 73.0518C155.289 71.584 155.311 70.8026 155.311 70.8026C155.311 70.8026 155.332 71.584 155.342 73.0518C155.349 74.5637 155.359 76.7085 155.37 79.4215C155.381 84.9576 155.396 92.8043 155.413 102.239V102.341H155.311C149.242 102.346 142.481 102.351 135.24 102.357L135.358 102.239C135.358 107.279 135.359 112.559 135.361 117.991C135.356 130.337 135.35 141.903 135.344 151.711L135.24 151.606C145.268 151.625 153.64 151.639 159.551 151.649C162.452 151.662 164.747 151.672 166.364 151.678C167.936 151.69 168.774 151.713 168.774 151.713Z" fill="#EBEBEB"/>
<path d="M81.6807 113.315V116.52H107.43V112.674L81.6807 113.315Z" fill="#FAFAFA"/>
<path d="M81.4814 118.9V122.103H107.23V118.259L81.4814 118.9Z" fill="#FAFAFA"/>
<path d="M358.658 131.296L305.013 112.032L251.89 131.036C245.109 134.239 239.159 136.157 239.159 142.475V173.931C239.159 195.775 244.884 217.421 256.659 236.533C266.568 252.614 281.914 269.174 305.534 279.698C327.25 272.645 343.456 253.842 353.365 237.759C365.143 218.648 370.866 197 370.866 175.156V146.87C370.866 137.86 366.089 133.461 358.658 131.296Z" fill="#BE1F24"/>
<g opacity="0.3">
<path d="M305.534 261.444C286.846 253.117 274.706 239.736 266.866 227.011C257.55 211.892 253.022 194.764 253.022 177.483V155.417C253.022 150.419 256.037 145.737 262.024 142.943L305.024 126.865L305.015 112.031L251.892 131.035C246.315 133.47 239.161 136.155 239.161 142.474V173.93C239.161 195.774 244.886 217.42 256.661 236.531C266.569 252.613 281.916 269.173 305.536 279.696V261.444H305.534Z" fill="black"/>
</g>
<g opacity="0.4">
<path d="M305.536 279.698C309.298 278.438 312.757 276.986 316.074 275.178C324.982 270.326 332.578 263.662 338.376 257.635C344.861 250.89 349.693 243.601 353.89 236.793C365.665 217.681 371.388 196.035 370.868 173.587L370.9 147.617C370.868 134.684 364.236 133.732 358.66 131.296L305.015 112.032L305.024 126.866L348.527 143.204C354.513 145.998 357.528 150.68 357.528 155.679V177.745C357.528 195.027 353.001 212.155 343.686 227.274C335.846 239.997 324.226 253.12 305.538 261.447V279.698H305.536Z" fill="black"/>
</g>
<path opacity="0.5" d="M319.244 176.066L319.304 171.822C319.304 164.142 313.056 157.893 305.376 157.893C297.696 157.893 291.449 164.142 291.449 171.8L291.388 176.125C287.629 176.683 284.743 179.911 284.743 183.824V208.865C284.743 213.169 288.231 216.659 292.537 216.659H318.532C322.835 216.659 326.326 213.169 326.326 208.865V183.824C326.326 179.762 323.214 176.429 319.244 176.066ZM309.09 202.633H302.291L303.352 197.722C302.176 196.991 301.389 195.691 301.389 194.202C301.389 191.915 303.246 190.057 305.535 190.057C307.823 190.057 309.679 191.915 309.679 194.202C309.679 195.636 308.952 196.901 307.845 197.644C308.327 199.549 309.09 202.633 309.09 202.633ZM316.244 176.033H294.392L294.45 171.824C294.45 165.797 299.352 160.896 305.378 160.896C311.402 160.896 316.305 165.797 316.305 171.802L316.244 176.033Z" fill="white"/>
<path d="M261.713 175.762C261.595 175.779 261.221 174.125 260.909 171.405C260.587 168.69 260.348 164.904 260.473 160.726C260.532 158.638 260.671 156.65 260.86 154.85C261.033 153.051 261.362 151.365 262.06 150.103C262.741 148.835 263.692 148.078 264.408 147.742C265.136 147.404 265.589 147.418 265.596 147.471C265.687 147.588 263.784 147.964 262.652 150.401C262.093 151.58 261.846 153.148 261.721 154.929C261.581 156.717 261.47 158.685 261.412 160.753C261.29 164.89 261.419 168.638 261.572 171.35C261.713 174.063 261.852 175.743 261.713 175.762Z" fill="white"/>
<path d="M261.988 186.578C262.02 188.177 262.256 189.47 262.515 189.465C262.774 189.46 262.958 188.159 262.927 186.559C262.895 184.959 262.659 183.667 262.4 183.672C262.141 183.677 261.957 184.978 261.988 186.578Z" fill="white"/>
<path d="M376.863 115.381C376.863 115.381 378.376 115.679 381.113 116.764C382.481 117.302 384.14 118.105 385.914 119.354C387.66 120.612 389.57 122.361 390.915 124.874C392.305 127.353 393.134 130.492 393.231 133.954C393.312 137.405 393.27 141.144 393.296 145.184C393.299 153.26 393.373 162.49 393.315 172.771C393.224 183.059 391.909 194.395 388.975 206.291C385.971 218.163 381.2 230.572 374.222 242.679C367.204 254.738 358.293 266.683 347.128 277.36C335.991 287.97 322.342 297.356 306.345 302.332L306.205 302.377L306.072 302.318C300.568 299.941 295.075 297.286 289.699 294.226C284.35 291.123 279.106 287.665 274.058 283.818C263.941 276.149 254.733 266.813 246.79 256.297C238.122 244.823 231.279 232.258 226.491 219.26C221.689 206.264 218.901 192.861 217.969 179.713C217.467 173.133 217.6 166.63 217.581 160.256C217.584 153.874 217.587 147.593 217.59 141.42C217.592 138.334 217.594 135.275 217.597 132.244C217.614 130.732 217.53 129.229 217.754 127.668C217.969 126.121 218.643 124.647 219.592 123.44C221.516 120.993 224.232 119.535 226.838 118.242C229.483 116.978 232.155 115.891 234.753 114.733L234.768 114.726L234.784 114.722C261.594 105.688 285.453 97.648 305.448 90.9093L305.535 90.8792L305.622 90.9093C328 98.5625 345.811 104.653 358.05 108.84C364.143 110.942 368.845 112.563 372.045 113.666C373.62 114.218 374.821 114.639 375.65 114.929C376.457 115.216 376.863 115.381 376.863 115.381C376.863 115.381 376.441 115.265 375.625 115C374.793 114.726 373.585 114.329 372 113.809C368.791 112.736 364.073 111.16 357.96 109.118C345.703 104.986 327.864 98.9729 305.449 91.418H305.622C285.644 98.2011 261.801 106.297 235.013 115.39L235.044 115.378C232.436 116.546 229.765 117.638 227.155 118.89C224.583 120.165 221.953 121.609 220.177 123.887C219.297 125.012 218.685 126.353 218.487 127.787C218.285 129.199 218.361 130.73 218.346 132.244C218.348 135.275 218.349 138.334 218.353 141.42C218.356 147.593 218.359 153.874 218.362 160.256C218.388 166.643 218.259 173.118 218.763 179.656C219.701 192.731 222.48 206.056 227.259 218.977C232.025 231.9 238.829 244.387 247.45 255.801C255.348 266.26 264.502 275.542 274.558 283.17C279.575 286.996 284.788 290.435 290.105 293.525C295.447 296.571 300.91 299.217 306.383 301.584L306.11 301.57C321.959 296.652 335.517 287.357 346.605 276.818C357.721 266.217 366.623 254.327 373.625 242.338C380.59 230.3 385.362 217.958 388.386 206.143C391.335 194.303 392.679 183.017 392.803 172.765C392.836 162.495 392.871 153.262 392.9 145.185C392.893 141.152 392.955 137.394 392.893 133.966C392.819 130.545 392.023 127.456 390.674 125.007C389.372 122.525 387.505 120.787 385.79 119.524C384.05 118.27 382.413 117.449 381.061 116.894C379.71 116.321 378.652 115.962 377.937 115.741C377.225 115.514 376.863 115.381 376.863 115.381Z" fill="#561B1D"/>
<path d="M519.058 75.7164L510.227 79.5046L510.819 27.2367C511.096 20.984 508.217 18.3148 506.654 16.5367C492.473 0.411052 471.317 12.1072 471.132 28.4606L470.602 75.1664L462.021 75.0688L462.874 26.1944C462.938 20.6869 467.214 11.1394 471.531 7.71968C495.397 -11.1864 519.822 8.34947 519.587 29.0116L519.058 75.7164Z" fill="#F5F5F5"/>
<path d="M519.059 75.7161C519.059 75.7161 519.053 75.3949 519.054 74.7819C519.058 74.1636 519.064 73.2568 519.071 72.0707C519.09 69.6869 519.117 66.1864 519.152 61.6803C519.192 57.1752 519.24 51.6667 519.296 45.2723C519.327 42.0783 519.36 38.6617 519.395 35.0394C519.36 31.4244 519.723 27.5649 518.979 23.6119C518.295 19.6632 516.63 15.6914 514.065 12.1509C513.738 11.7132 513.426 11.2608 513.084 10.8273C512.716 10.4148 512.348 10.0002 511.976 9.5835C511.271 8.7144 510.38 8.01324 509.566 7.22182C509.152 6.8324 508.671 6.51752 508.225 6.16064C507.759 5.82686 507.335 5.42904 506.83 5.14249C505.842 4.5421 504.882 3.87032 503.802 3.39169C501.725 2.26647 499.413 1.57371 497.061 0.976463C496.46 0.878847 495.858 0.779133 495.252 0.680467L494.343 0.53142C494.038 0.499931 493.729 0.489437 493.422 0.468444C492.805 0.429608 492.185 0.392869 491.564 0.354032C490.944 0.343536 490.318 0.393919 489.692 0.410714C484.677 0.586004 479.603 2.30111 475.21 5.2359C473.011 6.71589 471.047 8.56536 469.28 10.6143C467.551 12.7062 466.138 15.0763 465.011 17.6038C463.927 20.1565 463.259 22.8961 462.913 25.6976C462.673 28.5064 462.737 31.394 462.681 34.2889C462.552 45.879 462.416 57.8795 462.278 70.1708C462.259 71.8114 462.241 73.4478 462.222 75.0695L462.024 74.8669C464.943 74.8994 467.819 74.933 470.605 74.9645L470.403 75.1629C470.51 65.8736 470.615 56.7848 470.717 47.9541C470.768 43.5383 470.819 39.1865 470.869 34.9071C470.893 32.7669 470.92 30.6445 470.944 28.5411C470.998 26.4187 471.338 24.3236 471.979 22.3387C473.326 18.391 475.843 14.9377 479.076 12.5708C479.489 12.2863 479.868 11.9557 480.303 11.7143L481.585 10.9554C482.479 10.5324 483.352 10.0621 484.289 9.77349C485.2 9.40926 486.154 9.20565 487.096 8.97473C487.567 8.87606 488.05 8.83092 488.525 8.75639L489.238 8.65668L489.957 8.62729C491.866 8.47299 493.761 8.7312 495.582 9.09962C497.4 9.52578 499.121 10.2091 500.724 11.0625C503.879 12.8489 506.523 15.367 508.257 18.3239C509.185 19.7682 509.786 21.3584 510.319 22.9234C510.74 24.5241 511.075 26.1311 511.109 27.7349C511.124 28.1348 511.139 28.5337 511.153 28.9305C511.148 29.3241 511.143 29.7167 511.139 30.1071C511.129 30.8881 511.119 31.6606 511.11 32.4268C511.089 33.9593 511.071 35.4624 511.054 36.9371C510.978 42.8309 510.908 48.2491 510.846 53.1352C510.711 62.9 510.606 70.5392 510.537 75.6184L510.478 75.5586C513.394 75.6069 515.53 75.6436 516.948 75.6667C517.653 75.6804 518.175 75.6909 518.532 75.6982C518.882 75.7066 519.059 75.7161 519.059 75.7161C519.059 75.7161 518.897 75.7213 518.552 75.7213C518.2 75.7203 517.681 75.7192 516.983 75.7171C515.559 75.7087 513.409 75.6951 510.478 75.6772H510.42V75.6174C510.465 70.5361 510.533 62.8979 510.621 53.132C510.669 48.2459 510.723 42.8287 510.781 36.9329C510.796 35.4592 510.811 33.9551 510.827 32.4226C510.835 31.6564 510.843 30.8828 510.85 30.1019C510.854 29.7114 510.858 29.3199 510.863 28.9252C510.847 28.5348 510.832 28.1422 510.815 27.7475C510.779 26.1668 510.445 24.585 510.027 23.0094C509.498 21.4686 508.906 19.9046 507.989 18.4845C506.279 15.5759 503.67 13.104 500.566 11.3501C498.988 10.5135 497.294 9.84382 495.505 9.42816C493.715 9.06919 491.854 8.81622 489.975 8.97261L489.269 9.00096L488.568 9.10068C488.102 9.17415 487.628 9.21824 487.164 9.31586C486.24 9.54468 485.304 9.7441 484.407 10.1041C483.487 10.3886 482.631 10.8525 481.754 11.2682L480.496 12.0155C480.068 12.2527 479.697 12.5792 479.294 12.8573C476.121 15.1854 473.653 18.58 472.333 22.4542C471.706 24.4034 471.375 26.4565 471.323 28.5432C471.301 30.6466 471.276 32.769 471.253 34.9092C471.206 39.1897 471.158 43.5415 471.108 47.9562C471.01 56.7879 470.909 65.8757 470.805 75.165L470.802 75.3644L470.603 75.3623C467.817 75.3308 464.941 75.2983 462.022 75.2658L461.821 75.2637L461.823 75.0632C461.842 73.4415 461.86 71.8051 461.879 70.1645C462.02 57.8743 462.158 45.8727 462.29 34.2826C462.348 31.3824 462.283 28.5201 462.529 25.6556C462.881 22.8142 463.559 20.039 464.662 17.4527C465.806 14.8915 467.241 12.49 468.992 10.3728C470.785 8.29771 472.777 6.42619 475.006 4.92836C479.457 1.95893 484.602 0.228071 489.679 0.0569792C490.313 0.0391354 490.946 -0.00914153 491.575 0.00135487L493.729 0.135707C494.125 0.180842 494.519 0.225974 494.913 0.270059L496.714 0.568153C496.992 0.625883 497.268 0.684663 497.545 0.743443C499.785 1.32809 501.977 2.01666 503.956 3.09254C505.047 3.57853 506.017 4.25974 507.016 4.86854C507.526 5.15929 507.956 5.56129 508.425 5.89928C508.878 6.26245 509.363 6.58154 509.78 6.97621C510.603 7.77708 511.502 8.48874 512.212 9.36729C512.586 9.78924 512.959 10.2091 513.329 10.6269C513.673 11.0656 513.989 11.5232 514.319 11.9662C516.904 15.5507 518.577 19.5666 519.261 23.5574C520 27.5596 519.626 31.4381 519.649 35.0625C519.601 38.6974 519.557 42.1255 519.515 45.3311C519.426 51.7339 519.349 57.2487 519.285 61.76C519.219 66.2536 519.167 69.7447 519.132 72.1221C519.112 73.2966 519.096 74.1941 519.085 74.8071C519.072 75.4148 519.059 75.7161 519.059 75.7161Z" fill="#E0E0E0"/>
<path d="M529.429 111.181L451.495 110.296L452.241 44.5626L529.899 45.4443C531.555 45.4632 532.883 46.8214 532.863 48.4778L532.183 108.489C532.165 109.992 530.932 111.198 529.429 111.181Z" fill="#E0E0E0"/>
<path d="M518.659 111.059L451.177 110.294C449.319 110.273 447.831 108.749 447.852 106.892L448.524 47.7763C448.545 45.9793 450.017 44.5381 451.815 44.5581L520.133 45.3337C521.931 45.3547 523.371 46.8274 523.35 48.6254L522.687 107.123C522.662 109.322 520.858 111.083 518.659 111.059Z" fill="#EBEBEB"/>
<path d="M496.066 72.1382C496.125 66.976 491.91 62.7607 486.711 62.8562C481.861 62.9465 477.807 67.0002 477.711 71.8506C477.628 76.0796 480.43 79.6473 484.285 80.7935L478.153 93.3881L493.969 93.8584L489.293 80.8512C493.148 79.7995 496.019 76.3325 496.066 72.1382Z" fill="#E0E0E0"/>
<path d="M522.763 104.932C522.653 104.93 522.741 93.4821 522.962 79.3665C523.182 65.2447 523.451 53.8025 523.562 53.8036C523.671 53.8046 523.584 65.2499 523.364 79.3718C523.143 93.4884 522.873 104.933 522.763 104.932Z" fill="#FAFAFA"/>
<path d="M483.57 47.4223C495.995 47.3987 506.068 47.2898 506.068 47.1791C506.067 47.0683 495.995 46.9977 483.569 47.0213C471.144 47.0449 461.071 47.1538 461.072 47.2646C461.072 47.3753 471.145 47.4459 483.57 47.4223Z" fill="white"/>
<path d="M477.359 76.868C477.337 76.8796 477.194 76.6812 476.985 76.2918C476.775 75.9024 476.518 75.3125 476.299 74.5494C475.853 73.039 475.659 70.7444 476.448 68.4163C477.239 66.0893 478.789 64.3868 480.064 63.4589C480.702 62.9876 481.266 62.6748 481.669 62.4943C482.073 62.3127 482.307 62.2424 482.316 62.2644C482.351 62.3316 481.44 62.7042 480.239 63.6835C479.041 64.6439 477.588 66.3118 476.828 68.5444C476.072 70.778 476.209 72.9875 476.574 74.478C476.932 75.9853 477.427 76.8355 477.359 76.868Z" fill="white"/>
<path d="M479.746 80.7408C480.352 81.1178 480.891 81.3469 480.95 81.2524C481.009 81.1579 480.565 80.7756 479.959 80.3986C479.353 80.0215 478.815 79.7924 478.756 79.8869C478.697 79.9814 479.14 80.3637 479.746 80.7408Z" fill="white"/>
<path d="M488.591 2.46913C488.593 2.50377 488.038 2.5447 487.045 2.67066C486.053 2.79347 484.621 3.04748 482.911 3.55655C479.507 4.54216 474.921 6.82722 471.3 10.9261C467.686 15.0323 465.992 19.868 465.441 23.3685C465.153 25.1308 465.077 26.5815 465.079 27.5818C465.079 28.5821 465.109 29.1384 465.073 29.1405C465.059 29.1415 465.039 29.004 465.01 28.7406C464.989 28.4771 464.93 28.0877 464.923 27.5839C464.872 26.5783 464.902 25.112 465.159 23.3234C465.645 19.7724 467.319 14.837 470.998 10.6595C474.681 6.48714 479.367 4.20838 482.83 3.2826C484.571 2.80397 486.022 2.58984 487.026 2.51531C487.528 2.45968 487.92 2.46913 488.185 2.45653C488.451 2.45128 488.59 2.45548 488.591 2.46913Z" fill="white"/>
<path d="M464.521 33.8493C464.493 35.1673 464.56 36.2376 464.671 36.2399C464.782 36.2422 464.894 35.1757 464.922 33.8577C464.949 32.5397 464.882 31.4694 464.771 31.4671C464.661 31.4648 464.548 32.5313 464.521 33.8493Z" fill="white"/>
<path d="M458.096 355.878C456.259 354.302 452.16 349.31 455.321 343.502C456.48 341.374 458.942 340.32 461.168 339.383C463.397 338.445 465.738 337.629 467.58 336.062C471.056 333.104 472.016 328.191 474.324 324.246C476.972 319.716 481.918 316.324 487.141 316.56C493.124 316.832 498.113 321.718 500.375 327.289C502.637 332.861 502.715 339.046 502.762 345.061C502.788 348.387 502.641 352.138 500.198 354.384C497.946 356.456 494.556 356.482 491.503 356.388C480.606 356.054 469.708 355.717 458.81 355.383" fill="#F5F5F5"/>
<path d="M520.627 265.98H434.65L450.138 358.325C450.814 362.358 453.733 365.467 457.477 366.548C457.576 366.578 457.678 366.602 457.779 366.63C458.035 366.696 458.281 366.782 458.544 366.827C459.111 366.943 459.697 367.004 460.292 367.028C460.298 367.056 460.303 367.087 460.307 367.116L460.726 367.05C460.727 367.05 460.728 367.05 460.729 367.05H499.047C499.768 367.05 500.471 366.976 501.152 366.84C505.678 366.141 509.299 362.509 509.851 357.815L517.316 294.187L517.653 291.658H517.613L520.57 266.459L520.627 265.98ZM504.407 324.885H495.584L496.474 298.086H506.696L504.407 324.885ZM507.554 298.086H516.001L512.856 324.885H505.263L507.554 298.086ZM482.348 354.595L481.81 331.314H494.516L493.744 354.595H482.348ZM468.611 331.314H480.956L481.493 354.595H470.42L468.611 331.314ZM469.565 354.595H459.214C458.23 348.31 456.951 340.139 455.564 331.314H467.755L469.565 354.595ZM468.111 324.885L466.028 298.086H480.192L480.81 324.885H468.111ZM481.662 324.885L481.045 298.086H495.62L494.73 324.885H481.662ZM480.897 291.659L480.325 266.838H496.658L495.835 291.659H480.897ZM480.044 291.659H465.529L463.6 266.838H479.471L480.044 291.659ZM464.673 291.659H449.316C448.774 288.231 448.257 284.986 447.792 282.066C446.189 272.032 445.587 268.259 445.253 266.838H462.744L464.673 291.659ZM465.172 298.086L467.256 324.885H454.555C454.128 322.166 453.696 319.415 453.263 316.663C452.267 310.337 451.271 304.012 450.334 298.086H465.172ZM453.692 324.885H445.395L440.901 298.086H449.47C450.778 306.368 452.231 315.586 453.692 324.885ZM454.701 331.314C455.966 339.37 457.211 347.314 458.35 354.595H450.379L446.474 331.314H454.701ZM494.597 354.595L495.37 331.314H503.857L501.868 354.595H494.597ZM496.688 291.659L497.512 266.838H509.367L507.247 291.659H496.688ZM444.439 266.838C444.78 268.634 446.349 278.399 448.452 291.659H439.823L435.659 266.838H444.439ZM509.37 354.595H502.725L504.714 331.314H512.102L509.37 354.595ZM516.755 291.659H508.103L510.223 266.838H519.667L516.755 291.659Z" fill="#E0E0E0"/>
<path d="M508.511 161.123C497.73 166.708 489.463 176.323 483.519 186.909C477.575 197.496 473.744 209.112 469.949 220.645L466.629 280.124C479.173 258.784 489.242 233.697 491.962 209.093C489.179 208.845 486.396 208.597 483.614 208.35C489.211 207.496 493.909 203.44 496.899 198.632C499.887 193.823 501.427 188.279 502.928 182.819C499.532 183.323 496.137 183.828 492.744 184.333C500.719 179.01 506.501 170.5 508.511 161.123Z" fill="#455A64"/>
<path d="M508.513 161.123C497.732 166.708 489.465 176.323 483.521 186.909C477.577 197.496 473.746 209.112 469.951 220.645L466.631 280.124C479.175 258.783 489.244 233.697 491.963 209.093C489.181 208.845 486.398 208.596 483.616 208.35C489.213 207.496 493.911 203.44 496.901 198.632C499.889 193.823 501.429 188.279 502.93 182.819C499.534 183.323 496.139 183.828 492.746 184.333C500.72 179.009 506.503 170.5 508.513 161.123Z" fill="#580003"/>
<path d="M464.773 294.059C464.773 294.059 437.545 261.47 437.859 230.361H448.858C448.858 230.361 436.911 222.505 437.857 218.105C438.803 213.705 439.117 197.05 439.117 197.05L449.173 199.564C449.173 199.564 441.631 195.793 440.689 189.823C439.746 183.853 442.888 156.2 442.888 156.2C442.888 156.2 455.144 169.083 458.915 182.282C462.686 195.48 472.585 210.878 469.677 251.1C466.77 291.324 464.773 294.059 464.773 294.059Z" fill="#BE1F24"/>
<path d="M478.576 297.135C478.576 297.135 508.074 277.484 514.629 252.404L505.786 249.997C505.786 249.997 517.11 246.294 517.312 242.552C517.514 238.809 520.905 225.349 520.905 225.349L512.271 225.17C512.271 225.17 519.159 223.789 521.224 219.194C523.288 214.601 526.812 191.681 526.812 191.681C526.812 191.681 514.139 199.358 508.22 209.144C502.3 218.93 490.972 229.143 484.51 262.118C478.047 295.092 478.576 297.135 478.576 297.135Z" fill="#BE1F24"/>
<path d="M450.326 184.614C450.336 184.611 450.37 184.725 450.428 184.95C450.49 185.208 450.569 185.538 450.668 185.953C450.876 186.876 451.166 188.17 451.539 189.819C451.918 191.497 452.359 193.556 452.837 195.953C453.324 198.348 453.891 201.074 454.445 204.101C455.613 210.143 456.847 217.366 458.115 225.403C459.344 233.446 460.571 242.308 461.66 251.633C462.728 260.966 463.555 269.877 464.194 277.989C464.792 286.105 465.241 293.42 465.48 299.57C465.632 302.643 465.701 305.425 465.774 307.868C465.856 310.311 465.896 312.416 465.909 314.137C465.925 315.826 465.935 317.153 465.944 318.1C465.942 318.526 465.939 318.865 465.937 319.13C465.933 319.362 465.926 319.482 465.915 319.482C465.905 319.482 465.894 319.363 465.878 319.131C465.864 318.867 465.848 318.528 465.825 318.102C465.792 317.157 465.743 315.831 465.681 314.143C465.633 312.424 465.559 310.321 465.447 307.88C465.342 305.439 465.244 302.66 465.067 299.59C464.774 293.447 464.284 286.14 463.657 278.033C462.989 269.929 462.147 261.027 461.079 251.702C459.991 242.384 458.781 233.526 457.582 225.485C456.344 217.45 455.154 210.224 454.037 204.176C453.51 201.146 452.972 198.418 452.516 196.017C452.068 193.614 451.66 191.551 451.315 189.867C450.989 188.208 450.733 186.906 450.552 185.979C450.476 185.559 450.416 185.224 450.368 184.965C450.331 184.734 450.317 184.616 450.326 184.614Z" fill="#890004"/>
<path d="M460.995 314.014C460.995 314.014 436.078 285.745 428.342 268.654L434.182 266.159C429.95 266.858 425.612 265.038 422.329 262.276C419.045 259.513 416.634 255.878 414.272 252.297L421.966 250.998C414.969 249.034 408.805 244.259 405.155 237.976C414.235 239.469 422.447 244.456 429.216 250.689C434.698 255.736 439.34 261.596 443.797 267.582C445.971 270.503 447.874 273.615 449.46 276.892C453.647 285.548 461.01 303.633 460.995 314.014Z" fill="#BE1F24"/>
<path d="M515.019 208.136C515.028 208.141 514.991 208.239 514.907 208.426C514.809 208.641 514.684 208.913 514.528 209.249C514.164 210.006 513.659 211.056 513.018 212.389C511.686 215.105 509.797 219.054 507.511 223.954C502.933 233.752 496.899 247.428 490.94 262.818C484.994 278.216 480.257 292.395 477.053 302.725C475.449 307.889 474.188 312.081 473.347 314.986C472.925 316.402 472.592 317.52 472.352 318.325C472.241 318.679 472.152 318.962 472.08 319.189C472.014 319.384 471.977 319.481 471.967 319.479C471.958 319.475 471.977 319.371 472.022 319.173C472.08 318.942 472.15 318.653 472.239 318.292C472.454 317.48 472.751 316.353 473.128 314.924C473.903 311.999 475.103 307.786 476.659 302.603C479.763 292.236 484.444 278.021 490.395 262.606C496.36 247.201 502.46 233.537 507.138 223.777C509.474 218.895 511.419 214.973 512.814 212.287C513.496 210.974 514.035 209.941 514.423 209.195C514.599 208.869 514.742 208.607 514.854 208.398C514.955 208.22 515.011 208.132 515.019 208.136Z" fill="#890004"/>
<path d="M463.108 326.13C463.088 326.132 463.045 325.953 462.981 325.611C462.914 325.2 462.83 324.706 462.731 324.112C462.538 322.808 462.21 320.926 461.75 318.616C461.299 316.304 460.657 313.572 459.839 310.568C458.995 307.572 457.961 304.306 456.702 300.943C455.422 297.583 454.04 294.45 452.694 291.642C451.321 288.847 449.997 286.372 448.808 284.338C447.625 282.301 446.63 280.673 445.913 279.566C445.594 279.054 445.329 278.629 445.11 278.276C444.932 277.977 444.847 277.814 444.863 277.803C444.88 277.791 444.998 277.932 445.208 278.209C445.452 278.546 445.749 278.952 446.103 279.441C446.878 280.511 447.931 282.111 449.163 284.13C450.404 286.145 451.771 288.611 453.177 291.406C454.558 294.214 455.962 297.359 457.247 300.736C458.515 304.12 459.539 307.407 460.358 310.427C461.152 313.455 461.756 316.209 462.155 318.54C462.566 320.869 462.832 322.766 462.958 324.082C463.015 324.683 463.061 325.183 463.1 325.598C463.124 325.944 463.128 326.127 463.108 326.13Z" fill="#890004"/>
<path d="M495.987 319.48H441.454V330.604H495.987V319.48Z" fill="#455A64"/>
<path d="M446.65 330.603L452.55 368.02H485.502L491.001 330.603H446.65Z" fill="#455A64"/>
<path d="M469.603 330.895C482.328 330.895 492.644 330.765 492.644 330.603C492.644 330.442 482.328 330.312 469.603 330.312C456.878 330.312 446.562 330.442 446.562 330.603C446.562 330.765 456.878 330.895 469.603 330.895Z" fill="#890004"/>
</svg>
