<svg width="22" height="22" viewBox="0 0 22 22" fill="none" xmlns="http://www.w3.org/2000/svg">
<path d="M6.17813 4.44165C6.17813 3.90125 6.34621 3.1726 6.7495 2.60289C7.12679 2.0699 7.71978 1.65271 8.69639 1.65271C9.65586 1.65271 10.2802 2.09241 10.6925 2.66489C11.1286 3.27053 11.3052 4.00369 11.3052 4.44165C11.3052 4.89885 11.6759 5.26947 12.1332 5.26947H15.2986C15.3922 5.26947 15.5511 5.30436 15.6627 5.38474C15.7102 5.41889 15.7454 5.45821 15.771 5.5078C15.7962 5.55677 15.8272 5.64489 15.8272 5.79795V8.05844C15.8272 8.51565 16.1979 8.88627 16.6553 8.88627C17.1125 8.88627 17.4833 8.51565 17.4833 8.05844V5.79795C17.4833 4.98565 17.1262 4.39802 16.6303 4.04111C16.1767 3.71457 15.6572 3.61383 15.2986 3.61383H12.8708C12.743 2.99466 12.4749 2.3064 12.0364 1.69748C11.3634 0.762959 10.2693 -0.00292969 8.69639 -0.00292969C7.1407 -0.00292969 6.0605 0.710127 5.39771 1.64646C4.95973 2.26518 4.71 2.96916 4.59677 3.61383H2.18465C1.37212 3.61383 0.784382 3.97087 0.427376 4.46657C0.10077 4.92009 0 5.43942 0 5.79795V19.8129C0 20.6253 0.357093 21.2129 0.852934 21.5698C1.30656 21.8963 1.82603 21.9971 2.18465 21.9971H9.32929C9.78657 21.9971 10.1573 21.6265 10.1573 21.1692C10.1573 20.712 9.78657 20.3414 9.32929 20.3414H2.18465C2.09105 20.3414 1.93219 20.3065 1.82057 20.2262C1.77309 20.192 1.73787 20.1527 1.71228 20.1031C1.68703 20.0542 1.65605 19.966 1.65605 19.8129V5.79795C1.65605 5.70437 1.69093 5.54559 1.77131 5.43396C1.8055 5.38652 1.84482 5.3513 1.89443 5.32572C1.94337 5.30047 2.03151 5.26947 2.18465 5.26947H5.3501C5.80738 5.26947 6.17813 4.89885 6.17813 4.44165Z" fill="#D81E05"/>
<path d="M8.78611 4.89449C9.2855 4.89449 9.69039 4.4896 9.69039 3.99021C9.69039 3.49078 9.2855 3.08594 8.78611 3.08594C8.28668 3.08594 7.88184 3.49078 7.88184 3.99021C7.88184 4.4896 8.28668 4.89449 8.78611 4.89449Z" fill="#D81E05"/>
<path d="M4.44529 9.03906C3.98793 9.03906 3.61719 9.40985 3.61719 9.86716C3.61719 10.3245 3.98793 10.6953 4.44529 10.6953H9.42003C9.87739 10.6953 10.2481 10.3245 10.2481 9.86716C10.2481 9.40985 9.87739 9.03906 9.42003 9.03906H4.44529Z" fill="#D81E05"/>
<path d="M3.61719 13.0322C3.61719 12.5748 3.98793 12.2041 4.44529 12.2041H7.15877C7.61613 12.2041 7.98688 12.5748 7.98688 13.0322C7.98688 13.4896 7.61613 13.8603 7.15877 13.8603H4.44529C3.98793 13.8603 3.61719 13.4896 3.61719 13.0322Z" fill="#D81E05"/>
<path d="M4.44529 15.8193C3.98793 15.8193 3.61719 16.1901 3.61719 16.6474C3.61719 17.1048 3.98793 17.4755 4.44529 17.4755H7.15877C7.61613 17.4755 7.98688 17.1048 7.98688 16.6474C7.98688 16.1901 7.61613 15.8193 7.15877 15.8193H4.44529Z" fill="#D81E05"/>
<path d="M19.0801 14.4844C19.3839 14.1426 19.3531 13.6193 19.0113 13.3156C18.6695 13.0118 18.1461 13.0426 17.8422 13.3843L14.8077 16.7973L13.6197 15.6096C13.2963 15.2863 12.772 15.2863 12.4486 15.6096C12.1252 15.933 12.1252 16.4571 12.4486 16.7805L14.2576 18.589C14.4189 18.7503 14.6395 18.8379 14.8675 18.8312C15.0954 18.8245 15.3106 18.7241 15.4621 18.5536L19.0801 14.4844Z" fill="#D81E05"/>
<path fill-rule="evenodd" clip-rule="evenodd" d="M9.49414 15.7437C9.49414 12.2903 12.2944 9.49072 15.7487 9.49072C19.2029 9.49072 22.0031 12.2903 22.0031 15.7437C22.0031 19.1971 19.2029 21.9967 15.7487 21.9967C12.2944 21.9967 9.49414 19.1971 9.49414 15.7437ZM15.7487 11.1464C13.209 11.1464 11.1502 13.2047 11.1502 15.7437C11.1502 18.2828 13.209 20.3411 15.7487 20.3411C18.2883 20.3411 20.3471 18.2828 20.3471 15.7437C20.3471 13.2047 18.2883 11.1464 15.7487 11.1464Z" fill="#D81E05"/>
</svg>
