<svg width="22" height="22" viewBox="0 0 22 22" fill="none" xmlns="http://www.w3.org/2000/svg">
<path d="M21.7259 20.4483L16.0606 14.7889C16.6089 14.0587 17.0657 13.3285 17.4312 12.4157C18.345 10.1337 18.2536 7.66915 17.3399 5.47845C16.4261 3.28774 14.69 1.55344 12.4056 0.640664C10.1212 -0.272129 7.6541 -0.18085 5.46109 0.731943C0.892343 2.74007 -1.20929 8.03427 0.709592 12.5982C2.17159 15.9756 5.46109 18.075 9.02472 18.075C10.2126 18.075 11.4005 17.8012 12.5884 17.3448C13.4107 16.9796 14.1417 16.6145 14.7814 16.0668L20.4466 21.7262C20.6294 21.9087 20.8121 22 21.0863 22C21.3604 22 21.5431 21.9087 21.7259 21.7262C22.0914 21.361 22.0914 20.8134 21.7259 20.4483ZM11.8574 15.7017C8.20235 17.2535 3.90771 15.5192 2.35434 11.868C0.800967 8.21683 2.53709 3.9267 6.19209 2.55751C7.92822 1.736 9.8471 1.736 11.6746 2.46623C13.4107 3.19647 14.8727 4.56566 15.6037 6.29996C16.4261 8.03427 16.4261 9.95113 15.6951 11.7767C14.9641 13.511 13.5935 14.9715 11.8574 15.7017Z" fill="#949494"/>
</svg>
