<svg width="13" height="13" viewBox="0 0 13 13" fill="none" xmlns="http://www.w3.org/2000/svg">
<path d="M8.41083 0.485117C8.55741 0.333347 8.73275 0.21229 8.92662 0.12901C9.12049 0.0457292 9.32901 0.00189347 9.54 5.99972e-05C9.75099 -0.00177347 9.96024 0.0384322 10.1555 0.118331C10.3508 0.19823 10.5282 0.316221 10.6774 0.465421C10.8266 0.614621 10.9446 0.792041 11.0245 0.987329C11.1044 1.18262 11.1446 1.39186 11.1428 1.60286C11.141 1.81385 11.0971 2.02236 11.0138 2.21623C10.9306 2.4101 10.8095 2.58545 10.6577 2.73203L10.0277 3.36209L7.78077 1.11517L8.41083 0.485117ZM6.65731 2.23863L0 8.89594V11.1429H2.24691L8.90502 4.48554L6.65652 2.23863H6.65731Z" fill="#363636"/>
<line x1="0.5" y1="12.5" x2="11.5714" y2="12.5" stroke="#003F7A" stroke-linecap="round"/>
</svg>
