<svg width="17" height="17" viewBox="0 0 17 17" fill="none" xmlns="http://www.w3.org/2000/svg">
<path fill-rule="evenodd" clip-rule="evenodd" d="M8.68835 0.359865C13.278 0.362759 17.0062 4.10257 17 8.69703C16.9937 13.2775 13.2558 17.0038 8.67147 16.9999C4.08184 16.9961 0.35312 13.2553 0.359872 8.6623C0.367107 4.08135 4.10306 0.356971 8.68835 0.359865ZM8.68594 15.8424C12.6384 15.8381 15.8492 12.6201 15.8424 8.66905C15.8357 4.72282 12.6288 1.51933 8.68305 1.51692C4.73199 1.51451 1.51693 4.72908 1.51741 8.68063C1.51837 12.6322 4.73633 15.8467 8.68594 15.8424Z" fill="#BE1F24"/>
<path fill-rule="evenodd" clip-rule="evenodd" d="M8.10108 7.11607C8.10108 6.45338 8.1006 5.79118 8.10108 5.12849C8.10156 4.74361 8.33548 4.48412 8.67888 4.48364C9.02084 4.48364 9.25765 4.74505 9.25765 5.128C9.25862 6.30869 9.26055 7.4889 9.25476 8.6691C9.25428 8.80126 9.29624 8.87023 9.40765 8.93727C10.1813 9.40173 10.9515 9.87294 11.7208 10.3446C11.9865 10.5077 12.0975 10.7575 12.0295 11.0131C11.9272 11.397 11.5071 11.5625 11.1483 11.3488C10.6158 11.0319 10.0892 10.7049 9.56006 10.3823C9.18483 10.1536 8.812 9.92214 8.43436 9.69738C8.20574 9.56137 8.09771 9.37038 8.09963 9.1027C8.10446 8.44146 8.10108 7.77876 8.10108 7.11607Z" fill="#BE1F24"/>
</svg>
