<svg width="24" height="24" viewBox="0 0 24 24" fill="none" xmlns="http://www.w3.org/2000/svg">
<path fill-rule="evenodd" clip-rule="evenodd" d="M11.7664 23.2416C11.46 23.2416 11.1536 23.2416 10.8472 23.2416C10.8189 23.1748 10.7569 23.1988 10.708 23.1943C10.2662 23.1527 9.82659 23.0923 9.39269 23.0025C4.55269 22.0012 0.839896 18.1002 0.12248 13.2733C0.0855405 13.0248 0.102201 12.7668 0 12.5287C0 11.9234 0 11.3181 0 10.7129C0.067674 10.685 0.043316 10.6237 0.0479119 10.5756C0.089964 10.1392 0.151089 9.70501 0.241973 9.27648C1.25594 4.49627 5.20582 0.829501 10.0931 0.120964C10.3447 0.084539 10.606 0.100936 10.8471 0C11.1535 0 11.4599 0 11.7664 0C11.7664 3.84243 11.7662 7.68485 11.7668 11.5272C11.7668 11.6557 11.7727 11.7842 11.7758 11.9127C11.771 11.9311 11.7662 11.9495 11.7613 11.9679C11.3732 12.31 10.9773 12.6439 10.601 12.9982C10.4569 13.1339 10.3854 13.1085 10.2584 12.9817C9.27276 11.9981 8.27768 11.0236 7.29042 10.0416C7.18059 9.93236 7.11865 9.89526 6.98849 10.0278C6.43944 10.5869 5.87983 11.136 5.31675 11.6813C5.20717 11.7874 5.2171 11.8443 5.32046 11.946C6.953 13.5528 8.58303 15.1621 10.208 16.7762C10.328 16.8953 10.3896 16.8711 10.4985 16.7714C10.9137 16.3915 11.3382 16.0215 11.7592 15.6478C11.7615 15.7687 11.7659 15.8895 11.7659 16.0103C11.7665 18.4206 11.7664 20.8311 11.7664 23.2416Z" fill="#02C644"/>
<path fill-rule="evenodd" clip-rule="evenodd" d="M11.7922 11.9126C11.7891 11.7841 11.7833 11.6557 11.7833 11.5272C11.7828 7.68481 11.7829 3.8424 11.7829 0C12.0856 0 12.3884 0 12.6911 0C12.7046 0.0482833 12.7448 0.0439143 12.7815 0.0449357C13.175 0.0559996 13.5631 0.120055 13.9465 0.197275C16.7534 0.762489 19.0648 2.1576 20.8612 4.38505C22.1606 5.99608 22.9648 7.8322 23.2818 9.88127C23.3246 10.1583 23.3131 10.444 23.408 10.713C23.408 11.3334 23.408 11.9537 23.408 12.5741C23.3597 12.5874 23.3647 12.6276 23.3628 12.6643C23.3433 13.0416 23.2855 13.4149 23.2111 13.7837C22.6449 16.5893 21.2497 18.8999 19.0215 20.6957C17.4098 21.9946 15.5729 22.7985 13.5231 23.1154C13.2459 23.1582 12.9601 23.1467 12.6911 23.2416C12.3884 23.2416 12.0856 23.2416 11.7829 23.2416C11.7829 20.8312 11.783 18.4207 11.7826 16.0103C11.7826 15.8894 11.7782 15.7686 11.7759 15.6477C11.7767 15.6362 11.7795 15.6252 11.7841 15.6146C12.0268 15.4 12.2721 15.188 12.512 14.9702C14.5719 13.101 16.6295 11.2293 18.6928 9.3637C18.8238 9.24529 18.8101 9.18465 18.699 9.06494C18.1747 8.49987 17.6569 7.92851 17.1465 7.35072C17.0367 7.22653 16.9792 7.21212 16.8497 7.3312C15.9151 8.19089 14.9728 9.04216 14.0312 9.89416C13.2862 10.5683 12.5387 11.2398 11.7922 11.9126Z" fill="#07A839"/>
<path fill-rule="evenodd" clip-rule="evenodd" d="M11.7902 11.8823C12.5396 11.2172 13.29 10.5533 14.0381 9.88673C14.9835 9.04442 15.9295 8.20282 16.8679 7.35302C16.9978 7.23521 17.0557 7.24945 17.1659 7.37229C17.6782 7.94353 18.1981 8.50834 18.7246 9.06698C18.8362 9.1853 18.8498 9.24527 18.7183 9.36232C16.6468 11.2066 14.5809 13.057 12.5128 14.905C12.2719 15.1203 12.0257 15.3298 11.7819 15.542C11.7799 14.3402 11.7779 13.1385 11.7759 11.9368C11.7807 11.9186 11.7855 11.9004 11.7902 11.8823Z" fill="#D2D2D6"/>
<path fill-rule="evenodd" clip-rule="evenodd" d="M11.7697 11.9856C11.7717 13.1891 11.7737 14.3925 11.7758 15.5959C11.7712 15.6064 11.7684 15.6173 11.7675 15.6287C11.3415 15.9987 10.912 16.365 10.4919 16.7412C10.3817 16.8398 10.3194 16.8638 10.198 16.7459C8.5538 15.1479 6.90457 13.5546 5.25269 11.9639C5.14814 11.8632 5.138 11.8069 5.24893 11.7018C5.81868 11.162 6.38489 10.6184 6.94041 10.0649C7.07212 9.93362 7.13479 9.97039 7.24593 10.0786C8.24485 11.0508 9.25168 12.0155 10.249 12.9893C10.3775 13.1148 10.4498 13.14 10.5956 13.0056C10.9764 12.6548 11.377 12.3243 11.7697 11.9856Z" fill="#E6E6E5"/>
</svg>
