<svg width="20" height="20" viewBox="0 0 20 20" fill="none" xmlns="http://www.w3.org/2000/svg">
<path fill-rule="evenodd" clip-rule="evenodd" d="M18.75 10C18.75 7.67936 17.8281 5.45376 16.1872 3.81282C14.5462 2.17187 12.3206 1.25 9.99997 1.25C7.67932 1.25 5.45372 2.17187 3.81277 3.81282C2.17182 5.45376 1.24995 7.67935 1.24995 10C1.24995 12.3206 2.17182 14.5462 3.81277 16.1872C5.45372 17.8281 7.67932 18.75 9.99997 18.75C12.3206 18.75 14.5462 17.8281 16.1872 16.1872C17.8281 14.5462 18.75 12.3206 18.75 10ZM-5.63462e-05 10C-5.61144e-05 7.34783 1.05352 4.80429 2.92888 2.92893C4.80425 1.05357 7.3478 -1.10609e-06 9.99997 -8.74228e-07C12.6521 -6.42368e-07 15.1957 1.05357 17.0711 2.92893C18.9464 4.8043 20 7.34783 20 10C20 12.6522 18.9464 15.1957 17.0711 17.0711C15.1957 18.9464 12.6521 20 9.99997 20C7.3478 20 4.80425 18.9464 2.92888 17.0711C1.05351 15.1957 -5.65781e-05 12.6522 -5.63462e-05 10ZM9.37497 14.375C9.37497 14.5408 9.44082 14.6997 9.55803 14.8169C9.67524 14.9342 9.83421 15 9.99997 15C10.1657 15 10.3247 14.9342 10.4419 14.8169C10.5591 14.6997 10.625 14.5408 10.625 14.375L10.625 7.13375L13.3075 9.8175C13.4248 9.93486 13.584 10.0008 13.75 10.0008C13.916 10.0008 14.0751 9.93486 14.1925 9.8175C14.3098 9.70014 14.3758 9.54097 14.3758 9.375C14.3758 9.20903 14.3098 9.04986 14.1925 8.9325L10.4425 5.1825C10.3844 5.1243 10.3154 5.07812 10.2395 5.04661C10.1636 5.0151 10.0822 4.99888 9.99997 4.99888C9.91776 4.99888 9.83636 5.0151 9.76043 5.04661C9.6845 5.07812 9.61553 5.1243 9.55747 5.1825L5.80746 8.9325C5.6901 9.04986 5.62417 9.20903 5.62417 9.375C5.62417 9.54097 5.6901 9.70014 5.80746 9.8175C5.92482 9.93486 6.08399 10.0008 6.24996 10.0008C6.41593 10.0008 6.5751 9.93486 6.69246 9.8175L9.37497 7.13375L9.37497 14.375Z" fill="#009D4E"/>
</svg>
